<svg class="w-10 h-10" xmlns="http://www.w3.org/2000/svg" width="8" height="8" viewBox="0 0 8 8" fill="none"><path d="M0.666667 4.64445C0.544444 4.64445 0.433333 4.6176 0.333333 4.56389C0.233333 4.49945 0.15 4.41889 0.0833332 4.32223C0.0277777 4.22556 0 4.11815 0 4C0 3.88186 0.0277777 3.77445 0.0833332 3.67778C0.15 3.58111 0.233333 3.50593 0.333333 3.45223C0.433333 3.38778 0.544444 3.35556 0.666667 3.35556C0.788889 3.35556 0.9 3.38778 1 3.45223C1.1 3.50593 1.17778 3.58111 1.23333 3.67778C1.3 3.77445 1.33333 3.88186 1.33333 4C1.33333 4.11815 1.3 4.22556 1.23333 4.32223C1.17778 4.41889 1.1 4.49945 1 4.56389C0.9 4.6176 0.788889 4.64445 0.666667 4.64445ZM2.33333 4.64445C2.21111 4.64445 2.1 4.6176 2 4.56389C1.9 4.49945 1.81667 4.41889 1.75 4.32223C1.69444 4.22556 1.66667 4.11815 1.66667 4C1.66667 3.88186 1.69444 3.77445 1.75 3.67778C1.81667 3.58111 1.9 3.50593 2 3.45223C2.1 3.38778 2.21111 3.35556 2.33333 3.35556C2.45556 3.35556 2.56667 3.38778 2.66667 3.45223C2.76667 3.50593 2.84444 3.58111 2.9 3.67778C2.96667 3.77445 3 3.88186 3 4C3 4.11815 2.96667 4.22556 2.9 4.32223C2.84444 4.41889 2.76667 4.49945 2.66667 4.56389C2.56667 4.6176 2.45556 4.64445 2.33333 4.64445ZM4 4.64445C3.87778 4.64445 3.76667 4.6176 3.66667 4.56389C3.56667 4.49945 3.48333 4.41889 3.41667 4.32223C3.36111 4.22556 3.33333 4.11815 3.33333 4C3.33333 3.88186 3.36111 3.77445 3.41667 3.67778C3.48333 3.58111 3.56667 3.50593 3.66667 3.45223C3.76667 3.38778 3.87778 3.35556 4 3.35556C4.12222 3.35556 4.23333 3.38778 4.33333 3.45223C4.43333 3.50593 4.51111 3.58111 4.56667 3.67778C4.63333 3.77445 4.66667 3.88186 4.66667 4C4.66667 4.11815 4.63333 4.22556 4.56667 4.32223C4.51111 4.41889 4.43333 4.49945 4.33333 4.56389C4.23333 4.6176 4.12222 4.64445 4 4.64445ZM5.66667 4.64445C5.54444 4.64445 5.43333 4.6176 5.33333 4.56389C5.23333 4.49945 5.15 4.41889 5.08333 4.32223C5.02778 4.22556 5 4.11815 5 4C5 3.88186 5.02778 3.77445 5.08333 3.67778C5.15 3.58111 5.23333 3.50593 5.33333 3.45223C5.43333 3.38778 5.54444 3.35556 5.66667 3.35556C5.78889 3.35556 5.9 3.38778 6 3.45223C6.1 3.50593 6.17778 3.58111 6.23333 3.67778C6.3 3.77445 6.33333 3.88186 6.33333 4C6.33333 4.11815 6.3 4.22556 6.23333 4.32223C6.17778 4.41889 6.1 4.49945 6 4.56389C5.9 4.6176 5.78889 4.64445 5.66667 4.64445ZM7.33333 4.64445C7.21111 4.64445 7.1 4.6176 7 4.56389C6.9 4.49945 6.81667 4.41889 6.75 4.32223C6.69444 4.22556 6.66667 4.11815 6.66667 4C6.66667 3.88186 6.69444 3.77445 6.75 3.67778C6.81667 3.58111 6.9 3.50593 7 3.45223C7.1 3.38778 7.21111 3.35556 7.33333 3.35556C7.45555 3.35556 7.56667 3.38778 7.66667 3.45223C7.76667 3.50593 7.84444 3.58111 7.9 3.67778C7.96667 3.77445 8 3.88186 8 4C8 4.11815 7.96667 4.22556 7.9 4.32223C7.84444 4.41889 7.76667 4.49945 7.66667 4.56389C7.56667 4.6176 7.45555 4.64445 7.33333 4.64445Z" fill="white"></path><path d="M3.35564 0.666667C3.35564 0.544444 3.38249 0.433333 3.4362 0.333333C3.50064 0.233333 3.5812 0.15 3.67786 0.0833332C3.77453 0.0277777 3.88194 -5.16442e-09 4.00009 0C4.11823 5.16442e-09 4.22564 0.0277777 4.32231 0.0833332C4.41898 0.15 4.49416 0.233333 4.54786 0.333333C4.61231 0.433333 4.64453 0.544444 4.64453 0.666667C4.64453 0.788889 4.61231 0.9 4.54786 1C4.49416 1.1 4.41898 1.17778 4.32231 1.23333C4.22564 1.3 4.11823 1.33333 4.00009 1.33333C3.88194 1.33333 3.77453 1.3 3.67786 1.23333C3.5812 1.17778 3.50064 1.1 3.4362 1C3.38249 0.9 3.35564 0.788889 3.35564 0.666667ZM3.35564 2.33333C3.35564 2.21111 3.38249 2.1 3.4362 2C3.50064 1.9 3.5812 1.81667 3.67786 1.75C3.77453 1.69444 3.88194 1.66667 4.00009 1.66667C4.11823 1.66667 4.22564 1.69444 4.32231 1.75C4.41898 1.81667 4.49416 1.9 4.54786 2C4.61231 2.1 4.64453 2.21111 4.64453 2.33333C4.64453 2.45556 4.61231 2.56667 4.54786 2.66667C4.49416 2.76667 4.41898 2.84444 4.32231 2.9C4.22564 2.96667 4.11823 3 4.00009 3C3.88194 3 3.77453 2.96667 3.67786 2.9C3.5812 2.84444 3.50064 2.76667 3.4362 2.66667C3.38249 2.56667 3.35564 2.45556 3.35564 2.33333ZM3.35564 5.66667C3.35564 5.54444 3.38249 5.43333 3.4362 5.33333C3.50064 5.23333 3.5812 5.15 3.67786 5.08333C3.77453 5.02778 3.88194 5 4.00009 5C4.11823 5 4.22564 5.02778 4.32231 5.08333C4.41898 5.15 4.49416 5.23333 4.54786 5.33333C4.61231 5.43333 4.64453 5.54444 4.64453 5.66667C4.64453 5.78889 4.61231 5.9 4.54786 6C4.49416 6.1 4.41898 6.17778 4.32231 6.23333C4.22564 6.3 4.11823 6.33333 4.00009 6.33333C3.88194 6.33333 3.77453 6.3 3.67786 6.23333C3.5812 6.17778 3.50064 6.1 3.4362 6C3.38249 5.9 3.35564 5.78889 3.35564 5.66667ZM3.35564 7.33333C3.35564 7.21111 3.38249 7.1 3.4362 7C3.50064 6.9 3.5812 6.81667 3.67786 6.75C3.77453 6.69444 3.88194 6.66667 4.00009 6.66667C4.11823 6.66667 4.22564 6.69444 4.32231 6.75C4.41898 6.81667 4.49416 6.9 4.54786 7C4.61231 7.1 4.64453 7.21111 4.64453 7.33333C4.64453 7.45555 4.61231 7.56667 4.54786 7.66667C4.49416 7.76667 4.41898 7.84444 4.32231 7.9C4.22564 7.96667 4.11823 8 4.00009 8C3.88194 8 3.77453 7.96667 3.67786 7.9C3.5812 7.84444 3.50064 7.76667 3.4362 7.66667C3.38249 7.56667 3.35564 7.45555 3.35564 7.33333Z" fill="white"></path></svg>